<svg width="24" height="24" viewBox="0 0 24 24" fill="none" xmlns="http://www.w3.org/2000/svg">
<path d="M4.54471 4.54471C4.64652 4.44291 4.7846 4.38571 4.92857 4.38571H7.5C7.91027 4.38571 8.24286 4.05313 8.24286 3.64286C8.24286 3.23259 7.91027 2.9 7.5 2.9H4.92857C4.39056 2.9 3.87459 3.11372 3.49415 3.49415C3.11372 3.87459 2.9 4.39056 2.9 4.92857V7.5C2.9 7.91027 3.23259 8.24286 3.64286 8.24286C4.05313 8.24286 4.38571 7.91027 4.38571 7.5V4.92857C4.38571 4.7846 4.44291 4.64652 4.54471 4.54471ZM16.5 2.9C16.0897 2.9 15.7571 3.23259 15.7571 3.64286C15.7571 4.05313 16.0897 4.38571 16.5 4.38571H19.0714C19.2154 4.38571 19.3535 4.44291 19.4553 4.54471C19.5571 4.64652 19.6143 4.7846 19.6143 4.92857V7.5C19.6143 7.91027 19.9469 8.24286 20.3571 8.24286C20.7674 8.24286 21.1 7.91027 21.1 7.5V4.92857C21.1 4.39056 20.8863 3.87459 20.5058 3.49415C20.1254 3.11372 19.6094 2.9 19.0714 2.9H16.5ZM8.88571 7.5C8.88571 7.08973 8.55313 6.75714 8.14286 6.75714C7.73259 6.75714 7.4 7.08973 7.4 7.5V10.0714C7.4 10.4817 7.73259 10.8143 8.14286 10.8143C8.55313 10.8143 8.88571 10.4817 8.88571 10.0714V7.5ZM16.6 7.5C16.6 7.08973 16.2674 6.75714 15.8571 6.75714C15.4469 6.75714 15.1143 7.08973 15.1143 7.5V10.0714C15.1143 10.4817 15.4469 10.8143 15.8571 10.8143C16.2674 10.8143 16.6 10.4817 16.6 10.0714V7.5ZM12.7429 8.78571C12.7429 8.37544 12.4103 8.04286 12 8.04286C11.5897 8.04286 11.2571 8.37544 11.2571 8.78571V12.5429H10.0714C9.66116 12.5429 9.32857 12.8754 9.32857 13.2857C9.32857 13.696 9.66116 14.0286 10.0714 14.0286H12C12.4103 14.0286 12.7429 13.696 12.7429 13.2857V8.78571ZM9.29732 15.3185C8.99986 15.036 8.52967 15.0481 8.24711 15.3455C7.96456 15.643 7.97664 16.1132 8.2741 16.3957C9.27953 17.3508 10.6133 17.8833 12 17.8833C13.3867 17.8833 14.7205 17.3508 15.7259 16.3957C16.0234 16.1132 16.0354 15.643 15.7529 15.3455C15.4703 15.0481 15.0001 15.036 14.7027 15.3185C13.9734 16.0113 13.0059 16.3976 12 16.3976C10.9941 16.3976 10.0266 16.0113 9.29732 15.3185ZM4.38571 16.5C4.38571 16.0897 4.05313 15.7571 3.64286 15.7571C3.23259 15.7571 2.9 16.0897 2.9 16.5V19.0714C2.9 19.6094 3.11372 20.1254 3.49415 20.5058C3.87459 20.8863 4.39056 21.1 4.92857 21.1H7.5C7.91027 21.1 8.24286 20.7674 8.24286 20.3571C8.24286 19.9469 7.91027 19.6143 7.5 19.6143H4.92857C4.7846 19.6143 4.64652 19.5571 4.54471 19.4553C4.44291 19.3535 4.38571 19.2154 4.38571 19.0714V16.5ZM21.1 16.5C21.1 16.0897 20.7674 15.7571 20.3571 15.7571C19.9469 15.7571 19.6143 16.0897 19.6143 16.5V19.0714C19.6143 19.2154 19.5571 19.3535 19.4553 19.4553C19.3535 19.5571 19.2154 19.6143 19.0714 19.6143H16.5C16.0897 19.6143 15.7571 19.9469 15.7571 20.3571C15.7571 20.7674 16.0897 21.1 16.5 21.1H19.0714C19.6094 21.1 20.1254 20.8863 20.5058 20.5058C20.8863 20.1254 21.1 19.6094 21.1 19.0714V16.5Z" fill="white" stroke="white" stroke-width="0.2" stroke-linecap="round" stroke-linejoin="round"/>
</svg>
