<svg width="24" height="24" viewBox="0 0 24 24" fill="none" xmlns="http://www.w3.org/2000/svg">
<path d="M7.00868 11.5259C7.01404 13.4481 6.55971 15.3448 5.68195 17.0647C5.64005 17.1539 5.58026 17.2339 5.50612 17.3001C5.43198 17.3662 5.345 17.4172 5.25035 17.4498C5.15569 17.4825 5.05529 17.4963 4.9551 17.4903C4.85491 17.4843 4.75697 17.4587 4.66708 17.415C4.5772 17.3713 4.49721 17.3104 4.43186 17.2359C4.36651 17.1615 4.31712 17.0749 4.28664 16.9814C4.25615 16.8879 4.24519 16.7894 4.25439 16.6917C4.2636 16.594 4.29278 16.499 4.34022 16.4126C5.11415 14.895 5.51457 13.2216 5.50955 11.5259C5.50779 10.5371 5.73436 9.56065 6.17239 8.66935C6.61041 7.77804 7.24859 6.99489 8.03933 6.37827C8.11617 6.31813 8.20438 6.27337 8.29891 6.24655C8.39345 6.21973 8.49246 6.21138 8.5903 6.22197C8.68813 6.23256 8.78288 6.26188 8.86912 6.30827C8.95537 6.35465 9.03142 6.41719 9.09294 6.49231C9.15446 6.56742 9.20025 6.65365 9.22768 6.74607C9.25511 6.83848 9.26366 6.93528 9.25282 7.03092C9.24199 7.12656 9.212 7.21918 9.16455 7.3035C9.1171 7.38781 9.05313 7.46216 8.97629 7.5223C8.36112 8.00175 7.86467 8.61082 7.52397 9.30407C7.18327 9.99732 7.00712 10.7568 7.00868 11.5259ZM12.2556 10.7932C12.0568 10.7932 11.8662 10.8704 11.7256 11.0078C11.585 11.1452 11.5061 11.3316 11.5061 11.5259C11.5059 14.3808 10.7644 17.1889 9.35107 19.6871C9.25466 19.8572 9.23129 20.0577 9.28611 20.2446C9.34093 20.4315 9.46946 20.5894 9.6434 20.6837C9.81735 20.7779 10.0225 20.8008 10.2137 20.7472C10.4048 20.6936 10.5664 20.5679 10.6628 20.3979C12.199 17.682 13.005 14.6294 13.0052 11.5259C13.0052 11.3316 12.9262 11.1452 12.7857 11.0078C12.6451 10.8704 12.4544 10.7932 12.2556 10.7932ZM12.2556 7.86212C11.2617 7.86212 10.3084 8.24813 9.60553 8.93523C8.90267 9.62233 8.50781 10.5542 8.50781 11.5259C8.50781 11.7203 8.58678 11.9067 8.72735 12.0441C8.86792 12.1815 9.05858 12.2587 9.25738 12.2587C9.45617 12.2587 9.64683 12.1815 9.7874 12.0441C9.92797 11.9067 10.0069 11.7203 10.0069 11.5259C10.0069 10.9429 10.2439 10.3838 10.6656 9.97151C11.0873 9.55925 11.6592 9.32765 12.2556 9.32765C12.852 9.32765 13.424 9.55925 13.8457 9.97151C14.2674 10.3838 14.5043 10.9429 14.5043 11.5259C14.5121 14.4396 13.8556 17.3183 12.5826 19.9527C12.5406 20.04 12.5166 20.1345 12.5119 20.2309C12.5073 20.3272 12.5221 20.4235 12.5555 20.5142C12.5889 20.605 12.6403 20.6884 12.7067 20.7598C12.773 20.8311 12.8532 20.889 12.9424 20.9301C13.0317 20.9711 13.1284 20.9946 13.2269 20.9992C13.3255 21.0037 13.424 20.9893 13.5168 20.9566C13.6096 20.9239 13.695 20.8737 13.768 20.8088C13.841 20.7439 13.9001 20.6656 13.9422 20.5783C15.3086 17.748 16.0127 14.6556 16.0035 11.5259C16.0035 10.5542 15.6086 9.62233 14.9058 8.93523C14.2029 8.24813 13.2496 7.86212 12.2556 7.86212ZM12.2556 2C9.67211 2.00267 7.19518 3.00715 5.36835 4.79303C3.54152 6.57891 2.51401 9.00032 2.51128 11.5259C2.51267 12.441 2.35424 13.3495 2.0428 14.2124C1.97658 14.3957 1.98755 14.5972 2.0733 14.7726C2.15904 14.948 2.31255 15.0829 2.50004 15.1476C2.68753 15.2124 2.89365 15.2016 3.07305 15.1178C3.25246 15.034 3.39045 14.8839 3.45667 14.7006C3.8244 13.6808 4.01167 12.6072 4.01041 11.5259C4.01041 9.38819 4.87911 7.33799 6.42539 5.82637C7.97167 4.31475 10.0689 3.46553 12.2556 3.46553C14.4424 3.46553 16.5396 4.31475 18.0859 5.82637C19.6322 7.33799 20.5009 9.38819 20.5009 11.5259C20.5012 13.2002 20.3352 14.8705 20.0052 16.5133C19.9861 16.6077 19.9862 16.7049 20.0056 16.7993C20.0249 16.8937 20.0631 16.9834 20.1179 17.0634C20.1727 17.1433 20.2431 17.2119 20.3251 17.2653C20.407 17.3186 20.4989 17.3557 20.5955 17.3743C20.6434 17.3834 20.692 17.388 20.7407 17.3881C20.9142 17.3879 21.0822 17.3289 21.2162 17.2212C21.3501 17.1134 21.4417 16.9636 21.4753 16.7973C21.8244 15.0609 22.0001 13.2955 22 11.5259C21.997 9.0004 20.9694 6.57913 19.1427 4.7933C17.3159 3.00747 14.8391 2.00291 12.2556 2ZM9.10746 13.7398C8.91306 13.702 8.71126 13.741 8.5462 13.8483C8.38114 13.9556 8.26627 14.1224 8.22672 14.3123C7.92258 15.7756 7.37803 17.1812 6.61422 18.4744C6.51482 18.6427 6.4879 18.8428 6.53939 19.0305C6.59087 19.2183 6.71654 19.3784 6.88875 19.4755C7.06096 19.5727 7.2656 19.599 7.45765 19.5487C7.64971 19.4984 7.81344 19.3755 7.91284 19.2071C8.75694 17.7771 9.35815 16.2227 9.69306 14.6045C9.71276 14.5101 9.71323 14.4129 9.69445 14.3183C9.67567 14.2238 9.63801 14.1338 9.58362 14.0535C9.52924 13.9732 9.45919 13.9041 9.37748 13.8503C9.29578 13.7965 9.20402 13.7589 9.10746 13.7398ZM12.2556 4.93106C11.9737 4.93112 11.6921 4.94825 11.4124 4.98235C11.2188 5.01076 11.0443 5.11205 10.9261 5.26458C10.808 5.41711 10.7555 5.60878 10.78 5.79862C10.8044 5.98846 10.9039 6.16141 11.0571 6.28051C11.2103 6.39961 11.4051 6.4554 11.5998 6.43597C12.3382 6.34621 13.0877 6.4108 13.7987 6.62546C14.5097 6.84012 15.1659 7.19997 15.724 7.68117C16.282 8.16237 16.7292 8.75396 17.0358 9.41677C17.3424 10.0796 17.5015 10.7985 17.5026 11.5259C17.5024 12.4751 17.4423 13.4234 17.3227 14.3654C17.3096 14.4612 17.3159 14.5586 17.3414 14.652C17.367 14.7454 17.4111 14.8329 17.4714 14.9095C17.5317 14.9861 17.6068 15.0503 17.6926 15.0984C17.7784 15.1465 17.873 15.1776 17.9711 15.1898C18.0022 15.1934 18.0335 15.1953 18.0648 15.1953C18.2471 15.1949 18.423 15.1296 18.5596 15.0115C18.6961 14.8935 18.7841 14.7309 18.8068 14.5541C18.9332 13.5513 18.9958 12.5418 18.9942 11.5314C18.9937 9.78328 18.284 8.10667 17.0208 6.86933C15.7576 5.63199 14.0439 4.93494 12.2556 4.93106ZM17.6834 16.6782C17.5881 16.6541 17.4888 16.6486 17.3913 16.662C17.2937 16.6754 17.1999 16.7075 17.115 16.7564C17.0302 16.8054 16.956 16.8701 16.8968 16.9471C16.8376 17.024 16.7945 17.1116 16.7699 17.2049C16.6331 17.726 16.4748 18.2491 16.3014 18.762C16.238 18.9458 16.2517 19.1466 16.3395 19.3206C16.4273 19.4945 16.5821 19.6273 16.7699 19.6899C16.8468 19.7154 16.9276 19.7284 17.0088 19.7283C17.1659 19.7282 17.3189 19.6799 17.4464 19.5901C17.5738 19.5004 17.6692 19.3738 17.719 19.2282C17.9064 18.686 18.0741 18.1291 18.2203 17.5749C18.2454 17.4817 18.2515 17.3845 18.2381 17.289C18.2248 17.1935 18.1923 17.1015 18.1425 17.0183C18.0927 16.9351 18.0266 16.8623 17.948 16.8041C17.8694 16.7459 17.7798 16.7034 17.6844 16.6791L17.6834 16.6782Z" fill="white"/>
</svg>
