<svg viewBox="0 0 24 24" fill="none" xmlns="http://www.w3.org/2000/svg">
<path d="M18.1417 8.525L18.15 8.51667L15.05 5.41667L14.1667 6.3L15.925 8.05833C15.1417 8.35833 14.5833 9.10833 14.5833 10C14.5833 11.15 15.5167 12.0833 16.6667 12.0833C16.9667 12.0833 17.2417 12.0167 17.5 11.9083V17.9167C17.5 18.375 17.125 18.75 16.6667 18.75C16.2083 18.75 15.8333 18.375 15.8333 17.9167V14.1667C15.8333 13.25 15.0833 12.5 14.1667 12.5H13.3333V6.66667C13.3333 5.75 12.5833 5 11.6667 5H6.66667C5.75 5 5 5.75 5 6.66667V20H13.3333V13.75H14.5833V17.9167C14.5833 19.0667 15.5167 20 16.6667 20C17.8167 20 18.75 19.0667 18.75 17.9167V10C18.75 9.425 18.5167 8.9 18.1417 8.525ZM11.6667 18.3333H6.66667V12.5H11.6667V18.3333ZM11.6667 10.8333H6.66667V6.66667H11.6667V10.8333ZM16.6667 10.8333C16.2083 10.8333 15.8333 10.4583 15.8333 10C15.8333 9.54167 16.2083 9.16667 16.6667 9.16667C17.125 9.16667 17.5 9.54167 17.5 10C17.5 10.4583 17.125 10.8333 16.6667 10.8333Z" fill="white"/>
</svg>
