<svg width="24" height="24" viewBox="0 0 24 24" fill="none" xmlns="http://www.w3.org/2000/svg">
<path d="M21.6 12.2266C21.6 11.5175 21.5364 10.8357 21.4182 10.1812H12.0001V14.0493H17.3819C17.1501 15.2993 16.4455 16.3584 15.3864 17.0675V19.5766H18.6182C20.5091 17.8357 21.6 15.2721 21.6 12.2266Z" fill="white"/>
<path d="M11.9999 22.0001C14.6999 22.0001 16.9636 21.1047 18.6181 19.5774L15.3863 17.0683C14.4909 17.6683 13.3454 18.0229 11.9999 18.0229C9.39541 18.0229 7.19087 16.2638 6.4045 13.9001H3.0636V16.4911C4.70905 19.7592 8.09086 22.0001 11.9999 22.0001Z" fill="white"/>
<path d="M6.40454 13.9004C6.20454 13.3004 6.0909 12.6595 6.0909 12.0004C6.0909 11.3413 6.20454 10.7004 6.40454 10.1004V7.50952H3.06364C2.36364 8.90303 1.99938 10.441 2 12.0004C2 13.6141 2.38636 15.1413 3.06364 16.4913L6.40454 13.9004Z" fill="white"/>
<path d="M11.9999 5.97727C13.4681 5.97727 14.7863 6.48181 15.8227 7.47272L18.6908 4.60454C16.959 2.99091 14.6954 2 11.9999 2C8.09086 2 4.70905 4.24091 3.0636 7.50908L6.4045 10.1C7.19086 7.73636 9.39541 5.97727 11.9999 5.97727Z" fill="white"/>
</svg>
