<svg  viewBox="0 0 24 24" fill="none" xmlns="http://www.w3.org/2000/svg">
<path d="M13 22C12.4477 22 12 21.5523 12 21V20.7778C12 20.2255 12.4477 19.7778 13 19.7778H19.7778V4.22222H13C12.4477 4.22222 12 3.77451 12 3.22222V3C12 2.44772 12.4477 2 13 2H19.7778C20.3889 2 20.912 2.21759 21.3472 2.65278C21.7824 3.08796 22 3.61111 22 4.22222V19.7778C22 20.3889 21.7824 20.912 21.3472 21.3472C20.912 21.7824 20.3889 22 19.7778 22H13ZM9.77778 17.5556L8.25 15.9444L11.0833 13.1111H2V10.8889H11.0833L8.25 8.05556L9.77778 6.44444L15.3333 12L9.77778 17.5556Z" fill="black"/>
</svg>
