<svg viewBox="0 0 24 24" fill="none" xmlns="http://www.w3.org/2000/svg">
<path fill-rule="evenodd" clip-rule="evenodd" d="M6.10484 5.2882C4.25081 7.09657 2.56535 8.92586 2.35941 9.353C1.89083 10.3254 1.8791 11.6859 2.33204 12.5342C2.5226 12.8913 4.31751 14.78 6.32032 16.731L9.96169 20.2785C9.96169 20.2785 10.7689 21.0017 11.3989 21C12.0257 20.9983 12.8266 20.2785 12.8266 20.2785L17.3101 15.8892C19.7761 13.475 21.8562 11.2564 21.9324 10.9589C22.1955 9.93214 21.7345 9.11682 19.773 7.13842C17.539 4.88535 16.523 4.27928 15.5746 4.63403C15.2331 4.76197 13.4921 6.31829 11.7063 8.09251C7.35886 12.4115 6.5441 13.0633 5.49335 13.0633C4.27989 13.0633 3.45096 12.1816 3.45096 10.891C3.45096 9.95258 3.59852 9.75032 6.19939 7.12086C7.71115 5.59268 9.26981 4.20641 9.66363 4.04046C10.5671 3.65949 11.5709 3.96903 12.1231 4.79853C12.5806 5.48614 13.39 5.49071 13.809 4.80815C14.0379 4.43537 13.8835 4.19197 12.7785 3.18473C11.6611 2.16619 11.3386 2 10.4772 2C9.51778 2 9.33358 2.13853 6.10484 5.2882ZM17.2627 6.83634C17.3856 7.21778 17.2378 7.51361 16.6683 8.02565C15.7537 8.84794 15.7195 9.28951 16.5103 10.0678C17.283 10.8287 17.5234 10.8117 18.3536 9.93671C18.73 9.53987 19.1778 9.21519 19.3484 9.21519C19.7952 9.21519 20.5523 9.94753 20.5523 10.3797C20.5523 10.949 11.9875 19.3165 11.4045 19.3165C10.8766 19.3165 6.62692 15.3277 6.62692 14.8322C6.62692 14.6752 7.09428 14.1942 7.66522 13.7634C8.2364 13.3327 10.3699 11.3663 12.4067 9.39365C15.7016 6.20261 16.1643 5.83608 16.6043 6.06792C16.8765 6.21127 17.1726 6.55711 17.2627 6.83634ZM17.819 9.15242C17.6964 9.77918 16.8877 9.84916 16.8877 9.23275C16.8877 8.88858 17.0446 8.73418 17.3942 8.73418C17.7438 8.73418 17.8755 8.86381 17.819 9.15242ZM14.3399 9.83353C14.1288 10.0416 13.9561 10.3121 13.9561 10.4348C13.9561 10.739 14.3785 10.7176 14.5756 10.4035C14.6672 10.2575 15.0381 10.2145 15.4451 10.3025C16.2591 10.4786 16.4133 10.0899 15.6823 9.70462C15.0403 9.36647 14.7901 9.39052 14.3399 9.83353ZM14.9687 12.0188C14.9963 12.7915 14.934 13.6775 14.8304 13.9871C14.5793 14.737 13.3104 15.2278 11.6227 15.2278C10.0174 15.2278 9.83611 15.7786 11.3989 15.9068C14.3597 16.1492 16.2606 14.2651 15.7055 11.6383C15.3982 10.1839 14.9123 10.4348 14.9687 12.0188ZM9.4247 14.851C9.11932 15.3096 9.0944 15.5451 9.30915 15.94C9.648 16.5634 10.0504 16.3741 9.86543 15.6783C9.77772 15.3479 9.87227 15.0884 10.1327 14.945C10.6335 14.6692 10.6584 14.2658 10.175 14.2658C9.97659 14.2658 9.63896 14.5292 9.4247 14.851Z" fill="white"/>
</svg>
