<svg width="24" height="24" viewBox="0 0 24 24" fill="none" xmlns="http://www.w3.org/2000/svg">
<path d="M10.5714 14.4286C10.5714 13.8763 10.1237 13.4286 9.57143 13.4286H3C2.44771 13.4286 2 12.9809 2 12.4286V11.5714C2 11.0191 2.44772 10.5714 3 10.5714H9.57143C10.1237 10.5714 10.5714 10.1237 10.5714 9.57143V3C10.5714 2.44771 11.0191 2 11.5714 2H12.4286C12.9809 2 13.4286 2.44772 13.4286 3V9.57143C13.4286 10.1237 13.8763 10.5714 14.4286 10.5714H21C21.5523 10.5714 22 11.0191 22 11.5714V12.4286C22 12.9809 21.5523 13.4286 21 13.4286H14.4286C13.8763 13.4286 13.4286 13.8763 13.4286 14.4286V21C13.4286 21.5523 12.9809 22 12.4286 22H11.5714C11.0191 22 10.5714 21.5523 10.5714 21V14.4286Z" fill="black"/>
</svg>
