<svg width="35" height="35" viewBox="0 0 35 35" fill="none" xmlns="http://www.w3.org/2000/svg">
<path d="M31.7917 17.3541C31.7917 9.38051 25.3278 2.91663 17.3542 2.91663C9.38058 2.91663 2.91669 9.38051 2.91669 17.3541C2.91669 25.3277 9.38058 31.7916 17.3542 31.7916C25.3278 31.7916 31.7917 25.3277 31.7917 17.3541Z" fill="url(#paint0_radial_509_4074)"/>
<path d="M12.4596 13.3235C15.1629 10.6768 19.5457 10.6768 22.249 13.3235L22.5743 13.6421C22.7095 13.7744 22.7095 13.989 22.5743 14.1213L21.4614 15.2109C21.3938 15.2771 21.2842 15.2771 21.2167 15.2109L20.769 14.7726C18.8831 12.9262 15.8255 12.9262 13.9397 14.7726L13.4602 15.242C13.3926 15.3082 13.283 15.3082 13.2155 15.242L12.1025 14.1524C11.9674 14.02 11.9674 13.8055 12.1025 13.6732L12.4596 13.3235ZM24.5506 15.577L25.5411 16.5468C25.6763 16.6792 25.6763 16.8937 25.5411 17.0261L21.0749 21.399C20.9397 21.5313 20.7206 21.5313 20.5854 21.399C20.5854 21.399 20.5854 21.399 20.5854 21.399L17.4155 18.2954C17.3817 18.2623 17.3269 18.2623 17.2931 18.2954C17.2931 18.2954 17.2931 18.2954 17.2931 18.2954L14.1233 21.399C13.9882 21.5313 13.769 21.5313 13.6339 21.399C13.6339 21.399 13.6339 21.399 13.6339 21.399L9.16747 17.026C9.03231 16.8937 9.03231 16.6791 9.16747 16.5468L10.158 15.577C10.2931 15.4446 10.5123 15.4446 10.6474 15.577L13.8174 18.6806C13.8512 18.7137 13.906 18.7137 13.9397 18.6806C13.9397 18.6806 13.9397 18.6806 13.9397 18.6806L17.1095 15.577C17.2447 15.4446 17.4638 15.4446 17.599 15.577C17.599 15.577 17.599 15.577 17.599 15.577L20.7689 18.6806C20.8027 18.7137 20.8575 18.7137 20.8913 18.6806L24.0611 15.577C24.1963 15.4447 24.4155 15.4447 24.5506 15.577Z" fill="white"/>
<defs>
<radialGradient id="paint0_radial_509_4074" cx="0" cy="0" r="1" gradientUnits="userSpaceOnUse" gradientTransform="translate(2.91669 17.3541) scale(28.875)">
<stop stop-color="#5D9DF6"/>
<stop offset="1" stop-color="#006FFF"/>
</radialGradient>
</defs>
</svg>