<svg width="24" height="24" viewBox="0 0 24 24" fill="none" xmlns="http://www.w3.org/2000/svg">
<path d="M21.1485 9.90462C20.1024 8.81865 19.0504 7.74449 17.9811 6.68803C16.7141 5.43091 15.6737 5.43091 14.4126 6.70574C12.0762 9.06063 9.75726 11.445 7.42088 13.7999C6.32244 14.9095 5.0322 14.9803 4.04418 14.0419C3.02129 13.074 2.99223 11.628 4.06161 10.5125C5.69475 8.80685 7.37439 7.14249 9.03077 5.45452C9.89093 4.57512 11.2102 4.65775 11.9541 5.63748C12.0936 5.82044 12.2389 6.00931 12.3784 6.19817C12.6806 6.5995 13.2618 6.62901 13.6047 6.26309L13.6163 6.25129C13.9302 5.91487 13.9011 5.3837 13.5582 5.07679C13.1456 4.70497 12.7562 4.36265 12.3842 4.00263C11.0242 2.68059 9.96067 2.65108 8.61813 4.00263C6.74089 5.89127 4.88109 7.79761 3.04454 9.72756C1.61481 11.2267 1.66131 13.4517 3.13171 14.9626C5.09613 16.987 7.06636 18.9996 9.04239 21.0063C10.3443 22.3342 12.4656 22.3283 13.7675 21.0063C16.2317 18.5038 18.6843 15.9896 21.1369 13.4753C22.2819 12.2949 22.2877 11.0791 21.1544 9.90462H21.1485ZM17.9578 10.5066C17.9578 10.8548 17.6788 11.144 17.3301 11.144C16.9814 11.144 16.7025 10.8607 16.7025 10.5066C16.7025 10.1525 16.9814 9.8692 17.3301 9.8692C17.6788 9.8692 17.9578 10.1525 17.9578 10.5066ZM19.7769 13.0091C17.3127 15.5115 14.8252 17.9962 12.39 20.5282C11.6752 21.2718 11.1579 21.3427 10.4082 20.5518C9.22837 19.2947 7.97882 18.0966 6.82226 16.9634C6.46192 16.6093 6.5026 16.0132 6.90944 15.7122C7.59524 15.2105 8.21711 14.762 8.76342 14.2308C10.8092 12.2359 12.7911 10.1761 14.7962 8.13992C16.069 6.85329 16.2782 6.71754 17.2255 7.7681C17.5045 8.0809 17.5045 8.55896 17.2255 8.86587C16.5281 9.62132 15.2495 10.1053 16.5107 11.3742C17.7253 12.5959 18.1845 11.3211 18.8703 10.6424C19.1434 10.3709 19.5735 10.3473 19.8874 10.5715C21.0149 11.3742 20.9451 11.8228 19.7711 13.015L19.7769 13.0091Z" fill="white"/>
<path d="M21.1485 9.90462C20.1024 8.81865 19.0504 7.74449 17.9811 6.68803C16.7141 5.43091 15.6737 5.43091 14.4126 6.70574C12.0762 9.06063 9.75726 11.445 7.42088 13.7999C6.32244 14.9095 5.0322 14.9803 4.04418 14.0419C3.02129 13.074 2.99223 11.628 4.06161 10.5125C5.69475 8.80685 7.37439 7.14249 9.03077 5.45452C9.89093 4.57512 11.2102 4.65775 11.9541 5.63748C12.0936 5.82044 12.2389 6.00931 12.3784 6.19817C12.6806 6.5995 13.2618 6.62901 13.6047 6.26309L13.6163 6.25129C13.9302 5.91487 13.9011 5.3837 13.5582 5.07679C13.1456 4.70497 12.7562 4.36265 12.3842 4.00263C11.0242 2.68059 9.96067 2.65108 8.61813 4.00263C6.74089 5.89127 4.88109 7.79761 3.04454 9.72756C1.61481 11.2267 1.66131 13.4517 3.13171 14.9626C5.09613 16.987 7.06636 18.9996 9.04239 21.0063C10.3443 22.3342 12.4656 22.3283 13.7675 21.0063C16.2317 18.5038 18.6843 15.9896 21.1369 13.4753C22.2819 12.2949 22.2877 11.0791 21.1544 9.90462H21.1485ZM17.9578 10.5066C17.9578 10.8548 17.6788 11.144 17.3301 11.144C16.9814 11.144 16.7025 10.8607 16.7025 10.5066C16.7025 10.1525 16.9814 9.8692 17.3301 9.8692C17.6788 9.8692 17.9578 10.1525 17.9578 10.5066ZM19.7769 13.0091C17.3127 15.5115 14.8252 17.9962 12.39 20.5282C11.6752 21.2718 11.1579 21.3427 10.4082 20.5518C9.22837 19.2947 7.97882 18.0966 6.82226 16.9634C6.46192 16.6093 6.5026 16.0132 6.90944 15.7122C7.59524 15.2105 8.21711 14.762 8.76342 14.2308C10.8092 12.2359 12.7911 10.1761 14.7962 8.13992C16.069 6.85329 16.2782 6.71754 17.2255 7.7681C17.5045 8.0809 17.5045 8.55896 17.2255 8.86587C16.5281 9.62132 15.2495 10.1053 16.5107 11.3742C17.7253 12.5959 18.1845 11.3211 18.8703 10.6424C19.1434 10.3709 19.5735 10.3473 19.8874 10.5715C21.0149 11.3742 20.9451 11.8228 19.7711 13.015L19.7769 13.0091Z" fill="white"/>
</svg>
