<svg width="24" height="24" viewBox="0 0 24 24" fill="none" xmlns="http://www.w3.org/2000/svg">
<path d="M16 2.00559C13.24 2.00559 11 4.24559 11 7.00559V15.0056C11 16.6656 9.66 18.0056 8 18.0056C6.34 18.0056 5 16.6656 5 15.0056V8.00559H5.83C7.44 8.00559 8.89 6.82559 9 5.21559C9.12 3.52559 7.84 2.11559 6.2 2.00559C4.44 1.89559 3 3.42559 3 5.19559V15.0056C3 17.7656 5.24 20.0056 8 20.0056C10.76 20.0056 13 17.7656 13 15.0056V7.00559C13 5.34559 14.34 4.00559 16 4.00559C17.66 4.00559 19 5.34559 19 7.00559V14.0056H18.17C16.56 14.0056 15.11 15.1856 15 16.7956C14.88 18.4856 16.16 19.8956 17.8 20.0056C19.56 20.1256 21 18.5856 21 16.8256V7.00559C21 4.24559 18.76 2.00559 16 2.00559ZM5 5.00559C5 4.45559 5.45 4.00559 6 4.00559C6.55 4.00559 7 4.45559 7 5.00559C7 5.55559 6.55 6.00559 6 6.00559H5V5.00559ZM19 17.0056C19 17.5556 18.55 18.0056 18 18.0056C17.45 18.0056 17 17.5556 17 17.0056C17 16.4556 17.45 16.0056 18 16.0056H19V17.0056Z" fill="white"/>
</svg>
