<svg xmlns="http://www.w3.org/2000/svg"  viewBox="0 0 24 24" width="24px" height="24px"><path d="M 12 3 C 7.0414839 3 3 7.0414839 3 12 C 3 17.4 6.1992188 21.599609 6.1992188 21.599609 A 1.0003907 1.0003907 0 1 0 7.8007812 20.400391 C 7.8007812 20.400391 5 16.6 5 12 C 5 8.1225161 8.1225161 5 12 5 C 15.877484 5 19 8.1225161 19 12 C 19 12.56503 18.56503 13 18 13 C 17.43497 13 17 12.56503 17 12 A 1.0001 1.0001 0 0 0 16.994141 11.888672 C 16.933857 9.1904512 14.711981 7 12 7 C 9.2504839 7 7 9.2504839 7 12 C 7 17.533333 11.400391 20.800781 11.400391 20.800781 A 1.0003905 1.0003905 0 1 0 12.599609 19.199219 C 12.599609 19.199219 9 16.466667 9 12 C 9 10.331516 10.331516 9 12 9 C 13.668484 9 15 10.331516 15 12 A 1.0001 1.0001 0 0 0 15.021484 12.216797 C 15.135989 13.760669 16.429122 15 18 15 C 19.571539 15 20.864967 13.759624 20.978516 12.214844 A 1.0001 1.0001 0 0 0 21 12 A 1.0001 1.0001 0 0 0 20.994141 11.886719 C 20.932462 6.9806693 16.920271 3 12 3 z M 11.984375 10.986328 A 1.0001 1.0001 0 0 0 11 12 C 11 13.333333 11.571501 15.19752 12.982422 16.890625 C 14.393343 18.58373 16.722222 20 20 20 A 1.0001 1.0001 0 1 0 20 18 C 17.277778 18 15.606657 16.91627 14.517578 15.609375 C 13.428499 14.30248 13 12.666667 13 12 A 1.0001 1.0001 0 0 0 11.984375 10.986328 z"/></svg>